<?xml version="1.0" encoding="utf-8"?>
<!-- Generator: Adobe Illustrator 15.1.0, SVG Export Plug-In . SVG Version: 6.00 Build 0)  -->
<!DOCTYPE svg PUBLIC "-//W3C//DTD SVG 1.1//EN" "http://www.w3.org/Graphics/SVG/1.1/DTD/svg11.dtd">
<svg version="1.1" id="Layer_1" xmlns="http://www.w3.org/2000/svg" xmlns:xlink="http://www.w3.org/1999/xlink" x="0px" y="0px"
	 width="576.333px" height="251.008px" viewBox="0 0 576.333 251.008" enable-background="new 0 0 576.333 251.008"
	 xml:space="preserve">
<line fill="none" stroke="#808080" stroke-width="2" stroke-miterlimit="10" x1="58.667" y1="193.008" x2="216.667" y2="193.008"/>
<line fill="none" stroke="#808080" stroke-width="2" stroke-miterlimit="10" x1="201.667" y1="76.008" x2="383.667" y2="76.008"/>
<line fill="none" stroke="#808080" stroke-width="2" stroke-miterlimit="10" x1="370.667" y1="250.008" x2="531.667" y2="250.008"/>
<rect y="157.342" fill="none" width="58.667" height="24.667"/>
<text transform="matrix(1 0 0 1 15.3071 165.9697)"><tspan x="0" y="0" font-family="'Helvetica'" font-size="12">reactant</tspan><tspan x="-10.664" y="14.4" font-family="'Helvetica'" font-size="12">molecules</tspan></text>
<rect x="284.167" y="213.134" fill="none" width="41" height="15.956"/>
<text transform="matrix(1 0 0 1 295.2671 221.7734)"><tspan x="0" y="0" font-family="'Helvetica'" font-size="12">∆</tspan><tspan x="7.342" y="0" font-family="'Helvetica-Oblique'" font-size="12">H</tspan><tspan x="16.008" y="3" font-family="'Helvetica'" font-size="10">rxn</tspan></text>
<rect x="329.333" y="1.676" fill="none" width="58.667" height="24.667"/>
<text transform="matrix(1 0 0 1 329.3335 10.3037)"><tspan x="0" y="0" font-family="'Helvetica'" font-size="12">separated</tspan><tspan x="0" y="14.4" font-family="'Helvetica'" font-size="12">atoms</tspan></text>
<rect x="511" y="212.312" fill="none" width="65.333" height="31.668"/>
<text transform="matrix(1 0 0 1 511.0005 220.9404)"><tspan x="0" y="0" font-family="'Helvetica'" font-size="12">product</tspan><tspan x="0" y="14.4" font-family="'Helvetica'" font-size="12">molecules</tspan></text>
<circle fill="#39B54A" cx="119.667" cy="165.009" r="11.333"/>
<circle fill="#ED1C24" cx="81.667" cy="173.342" r="8"/>
<circle fill="#29ABE2" cx="108.833" cy="176.508" r="6.833"/>
<circle fill="#ED1C24" cx="77.667" cy="160.342" r="8"/>
<circle fill="#ED1C24" cx="156.667" cy="168.342" r="8"/>
<circle fill="#ED1C24" cx="168.667" cy="160.342" r="8"/>
<circle fill="#29ABE2" cx="108.833" cy="153.508" r="6.833"/>
<circle fill="#29ABE2" cx="129.833" cy="153.508" r="6.833"/>
<circle fill="#29ABE2" cx="130.833" cy="176.508" r="6.833"/>
<circle fill="#39B54A" cx="290.667" cy="41.009" r="11.333"/>
<circle fill="#ED1C24" cx="237.667" cy="27.342" r="8"/>
<circle fill="#29ABE2" cx="288.833" cy="64.508" r="6.833"/>
<circle fill="#ED1C24" cx="253.667" cy="57.342" r="8"/>
<circle fill="#ED1C24" cx="326.667" cy="55.342" r="8"/>
<circle fill="#ED1C24" cx="357.667" cy="37.342" r="8"/>
<circle fill="#29ABE2" cx="295.833" cy="8.508" r="6.833"/>
<circle fill="#29ABE2" cx="266.833" cy="29.508" r="6.833"/>
<circle fill="#29ABE2" cx="318.833" cy="29.508" r="6.833"/>
<circle fill="#39B54A" cx="460.184" cy="222.368" r="11.333"/>
<circle fill="#ED1C24" cx="467.9" cy="236.149" r="8"/>
<circle fill="#29ABE2" cx="417.463" cy="222.179" r="6.833"/>
<circle fill="#ED1C24" cx="452.433" cy="207.535" r="8"/>
<circle fill="#29ABE2" cx="437.635" cy="235.183" r="6.833"/>
<circle fill="#ED1C24" cx="424.89" cy="233.113" r="8"/>
<circle fill="#29ABE2" cx="496.355" cy="221.9" r="6.833"/>
<circle fill="#29ABE2" cx="478.952" cy="205.375" r="6.833"/>
<circle fill="#ED1C24" cx="491.09" cy="209.776" r="8"/>
<g>
	<path fill="none" d="M217.667,44.675"/>
</g>
<g>
	<path fill="none" d="M119,139.342"/>
</g>
<g>
	<path fill="none" d="M465.5,188.175"/>
</g>
<g>
	<path fill="none" d="M370.834,44.509"/>
</g>
<g>
	<g>
		
			<line fill="none" stroke="#999999" stroke-width="2" stroke-miterlimit="10" x1="219.667" y1="193.008" x2="223.667" y2="193.005"/>
		
			<line fill="none" stroke="#999999" stroke-width="2" stroke-miterlimit="10" stroke-dasharray="8.1053,4.0526" x1="227.719" y1="193.002" x2="298.64" y2="192.955"/>
		
			<line fill="none" stroke="#999999" stroke-width="2" stroke-miterlimit="10" x1="300.667" y1="192.954" x2="304.667" y2="192.951"/>
	</g>
</g>
<g>
	<g>
		
			<line fill="none" stroke="#999999" stroke-width="2" stroke-miterlimit="10" x1="279.667" y1="250.008" x2="283.667" y2="250.008"/>
		
			<line fill="none" stroke="#999999" stroke-width="2" stroke-miterlimit="10" stroke-dasharray="8,4" x1="287.667" y1="250.008" x2="356.667" y2="250.008"/>
		
			<line fill="none" stroke="#999999" stroke-width="2" stroke-miterlimit="10" x1="358.667" y1="250.008" x2="362.667" y2="250.008"/>
	</g>
</g>
<g>
	<g>
		
			<line fill="none" stroke="#808080" stroke-width="2" stroke-miterlimit="10" x1="290.667" y1="195.008" x2="290.667" y2="239.008"/>
		<g>
			<polygon fill="#808080" points="284.815,234.138 290.667,236.624 296.518,234.138 290.667,248.008 			"/>
		</g>
	</g>
</g>
<g>
	<g>
		
			<line fill="none" stroke="#808080" stroke-width="2" stroke-miterlimit="10" x1="376.667" y1="83.008" x2="376.667" y2="235.008"/>
		<g>
			<polygon fill="#808080" points="370.815,230.138 376.667,232.624 382.518,230.138 376.667,244.008 			"/>
		</g>
	</g>
</g>
<g>
	<g>
		
			<line fill="none" stroke="#808080" stroke-width="2" stroke-miterlimit="10" x1="206.667" y1="187.008" x2="206.667" y2="92.008"/>
		<g>
			<polygon fill="#808080" points="212.518,96.877 206.667,94.392 200.815,96.877 206.667,83.008 			"/>
		</g>
	</g>
</g>
<rect x="183" y="91" fill="none" width="18" height="95"/>
<text transform="matrix(0 -1 1 0 193 181)" fill="#2E3192" font-family="'Helvetica-Oblique'" font-size="10">endothermic</text>
<rect x="385" y="124" fill="none" width="15" height="81"/>
<text transform="matrix(0 1 -1 0 390 132)" fill="#2E3192" font-family="'Helvetica-Oblique'" font-size="10">exothermic</text>
<rect x="216.999" y="104.673" fill="none" width="15.334" height="78"/>
<text transform="matrix(4.489659e-11 -1 1 4.489659e-11 227.1885 182.6738)" fill="#666666" font-family="'Helvetica'" font-size="10">bonds breaking</text>
<rect x="352" y="128.341" fill="none" width="15.334" height="78"/>
<text transform="matrix(-1.346898e-10 1 -1 -1.346898e-10 357.1431 128.3408)" fill="#666666" font-family="'Helvetica'" font-size="10">bonds making</text>
<circle fill="#E6E6E6" stroke="#808080" stroke-width="2" stroke-miterlimit="10" cx="206.666" cy="139.674" r="9.333"/>
<rect x="199.333" y="132.674" fill="none" width="14" height="18.667"/>
<text transform="matrix(1 0 0 1 202.9956 144.3027)" fill="#808080" font-family="'Helvetica-Bold'" font-size="12">1</text>
<circle fill="#E6E6E6" stroke="#808080" stroke-width="2" stroke-miterlimit="10" cx="376.666" cy="155.674" r="9.333"/>
<rect x="369.333" y="148.674" fill="none" width="14" height="18.668"/>
<text transform="matrix(1 0 0 1 372.9956 160.3027)" fill="#808080" font-family="'Helvetica-Bold'" font-size="12">2</text>
</svg>
